# xmcd
#
# Track frame offsets: 
#        150
#        13370
#        28210
#        56545
#        70680
#        80397
#        95445
#        105662
#        115307
#        130347
#        145632
#        164992
#
# Disc length: 2288 seconds
#
# Revision: 0
# Processed by: cddbd v1.4PL0 Copyright (c) Steve Scherf et al.
# Submitted via: ExactAudioCopy v0.90a11
#
DISCID=a808ee0c
DTITLE=Instant Karma - Croatan
DYEAR=1900
DGENRE=
TTITLE0=Rich Man
TTITLE1=Croatan
TTITLE2=Take Me For A Ride
TTITLE3=Highway Song
TTITLE4=Thibodaux
TTITLE5=Let It Fly
TTITLE6=Spinning Wheels
TTITLE7=Mill Valley Train
TTITLE8=Headin' Down To Houston
TTITLE9=Bend Of The River
TTITLE10=Orion
TTITLE11=This Old Rag?
EXTD=
EXTT0=
EXTT1=
EXTT2=
EXTT3=
EXTT4=
EXTT5=
EXTT6=
EXTT7=
EXTT8=
EXTT9=
EXTT10=
EXTT11=
PLAYORDER=
